<svg width="328" height="187" viewBox="0 0 328 187" fill="none" xmlns="http://www.w3.org/2000/svg">
<g clip-path="url(#clip0_15_5)">
<path d="M272.688 41.5415C272.688 41.5415 264.978 45.8329 267.197 50.7189C269.416 55.6049 300.929 51.6073 300.929 51.6073C300.929 51.6073 298.71 44.9446 294.715 43.612C290.721 42.2795 272.688 41.5415 272.688 41.5415Z" fill="#F6774B"/>
<path d="M269.683 42.6857C271.232 41.6777 272.955 40.965 274.763 40.5833C280.795 39.1202 287.11 39.3174 293.039 41.1538L292.931 41.0654C295.457 42.3997 297.674 44.2502 299.44 46.497L269.683 42.6857Z" fill="#CCCCCC"/>
<path d="M303.823 63.698C303.717 65.2927 303.61 66.8858 303.504 68.4774C303.358 71.8111 302.994 75.1318 302.416 78.4182C301.875 81.1677 301.014 83.8949 299.474 86.2358C297.933 88.5721 295.648 90.5043 292.94 91.215C291.278 91.6137 289.55 91.6516 287.871 91.3261C284.707 89.5271 282.563 91.828 285.723 94.1688C286.44 94.6992 287.185 95.19 287.956 95.6391L289.389 117.79L262.759 112.016L267.956 82.5491C267.16 81.8252 266.432 81.0298 265.781 80.1727C262.803 76.215 261.778 71.0581 261.973 66.1099C262.173 61.1573 263.491 56.3291 264.801 51.5542C265.134 50.2587 265.537 48.982 266.008 47.7297C266.589 47.9696 267.18 48.1872 267.779 48.3693C271.609 49.5331 275.679 49.6264 279.683 49.6219C286.806 49.6175 293.921 49.3391 301.027 48.7869C302.66 51.4773 303.652 54.508 303.925 57.6438C304.04 59.6617 304.006 61.6852 303.823 63.698Z" fill="#CCCCCC"/>
<path d="M189.925 123.829L230.923 127.471L231.362 127.511V-47.5583C231.216 -47.6605 231.069 -47.7626 230.923 -47.8648C222.378 -53.8458 213.135 -58.7593 203.4 -62.4961L201.305 -33.5799L201.114 -30.9326L199.041 -2.25632L198.402 6.5651L190 122.807L189.925 123.829Z" fill="#E6E6E6"/>
<path d="M88.538 -50.8187C88.2451 -50.6322 87.9521 -50.4456 87.6592 -50.2502V127.511L88.538 127.431L129.092 123.829L129.016 122.807L120.615 6.56493L119.975 -2.25648L117.903 -30.9328L117.712 -33.5801L115.515 -63.9043C106.04 -60.6176 96.9856 -56.2255 88.538 -50.8187Z" fill="#E6E6E6"/>
<path d="M87.6595 -50.2501C87.0692 -49.8681 86.4789 -49.4772 85.8975 -49.0819V129.936C85.8975 134.409 88.5472 138.158 92.0891 139.113C92.6678 139.27 93.2649 139.349 93.8644 139.348H225.597C226.195 139.349 226.791 139.27 227.368 139.113C228.685 138.747 229.878 138.032 230.821 137.043C232.62 135.119 233.603 132.571 233.564 129.936V-45.9682C232.836 -46.5056 232.104 -47.0386 231.363 -47.5583C231.216 -47.6605 231.07 -47.7626 230.923 -47.8648V129.936C230.924 130.512 230.856 131.087 230.719 131.646C230.093 134.289 228.029 136.226 225.597 136.226H93.8644C90.9262 136.226 88.5383 133.405 88.5383 129.936V-50.8186C88.2454 -50.632 87.9525 -50.4455 87.6595 -50.2501Z" fill="#E6E6E6"/>
<path d="M187.825 -67.3421C186.946 -67.5598 186.067 -67.7641 185.18 -67.9551V3.91776H187.825V-67.3421Z" fill="#E6E6E6"/>
<path d="M134.28 -68.8479C133.397 -68.6836 132.514 -68.5148 131.635 -68.3327V3.91775H134.28V-68.8479Z" fill="#E6E6E6"/>
<path d="M58.7832 134.716C58.7826 136.235 59.0734 137.739 59.6398 139.149C59.8574 139.695 60.1171 140.224 60.4165 140.73C60.8033 141.39 61.2522 142.012 61.757 142.587C62.872 143.858 64.2454 144.877 65.7854 145.575C67.3254 146.273 68.9966 146.633 70.6871 146.633H244.367C247.524 146.633 250.552 145.378 252.785 143.144C255.017 140.91 256.271 137.88 256.271 134.72C256.271 131.561 255.017 128.53 252.785 126.296C250.552 124.062 247.524 122.807 244.367 122.807H70.6871C67.5317 122.81 64.5064 124.066 62.2748 126.298C60.0432 128.531 58.7875 131.558 58.7832 134.716Z" fill="#E6E6E6"/>
<path d="M87.2162 6.56592L231.361 6.56592V-2.257L87.2162 -2.257V6.56592Z" fill="#E6E6E6"/>
<path d="M0 141.52C3.85578 146.092 8.02623 150.389 12.4809 154.379H315.439C319.894 150.389 324.064 146.092 327.92 141.52H0Z" fill="#7B7A89"/>
<path d="M82.1816 98.5194V144.075H114.072V98.5194C114.072 98.1917 113.968 97.8725 113.774 97.6087C113.58 97.3449 113.306 97.1503 112.993 97.0536C112.846 97.0048 112.691 96.9808 112.536 96.9825H83.7218C83.5198 96.9821 83.3197 97.0216 83.1329 97.0986C82.9462 97.1756 82.7765 97.2888 82.6334 97.4315C82.4904 97.5742 82.3769 97.7438 82.2993 97.9304C82.2218 98.1171 82.1818 98.3172 82.1816 98.5194ZM94.627 114.172C94.6353 113.274 94.9976 112.416 95.6352 111.784C96.2727 111.151 97.1338 110.797 98.0313 110.797C98.9287 110.797 99.7898 111.151 100.427 111.784C101.065 112.416 101.427 113.274 101.436 114.172V119.458C101.431 120.359 101.07 121.221 100.432 121.856C99.7944 122.491 98.9311 122.848 98.0313 122.848C97.1314 122.848 96.2681 122.491 95.6302 121.856C94.9923 121.221 94.6316 120.359 94.627 119.458V114.172Z" fill="#2F2E41"/>
<path d="M82.085 142.617V147.01C82.0857 147.238 82.176 147.456 82.3364 147.617C82.4967 147.779 82.7142 147.87 82.9416 147.872H113.314C113.541 147.871 113.759 147.78 113.92 147.618C114.08 147.457 114.17 147.238 114.17 147.01V142.617H82.085Z" fill="#7B7A89"/>
<path d="M32.0146 29.8845V113.062C32.0155 114.122 32.4366 115.138 33.1856 115.888C33.9345 116.637 34.9501 117.059 36.0092 117.059H159.176C160.235 117.059 161.25 116.637 161.999 115.888C162.748 115.138 163.169 114.122 163.17 113.062V29.8845C163.168 28.8255 162.746 27.8106 161.997 27.0622C161.249 26.3137 160.234 25.8927 159.176 25.8914H36.0092C34.951 25.8927 33.9364 26.3137 33.1877 27.0622C32.439 27.8106 32.0172 28.8255 32.0146 29.8845Z" fill="#7B7A89"/>
<path d="M34.9033 30.9195V112.036C34.9043 112.602 35.1295 113.145 35.5297 113.545C35.9298 113.946 36.4723 114.171 37.0382 114.172H158.15C158.716 114.171 159.258 113.946 159.658 113.545C160.058 113.145 160.284 112.602 160.285 112.036V30.9195C160.284 30.3525 160.06 29.8086 159.659 29.4073C159.259 29.0059 158.716 28.7798 158.15 28.7786H37.0382C36.4716 28.7798 35.9286 29.0059 35.5284 29.4073C35.1282 29.8086 34.9034 30.3525 34.9033 30.9195Z" fill="#F6774B"/>
<path d="M59.5989 148.907C59.7222 149.062 59.8789 149.187 60.0572 149.272C60.2355 149.357 60.4309 149.401 60.6286 149.4H132.682C132.879 149.4 133.074 149.356 133.252 149.271C133.429 149.186 133.586 149.062 133.71 148.909C133.834 148.756 133.923 148.577 133.969 148.385C134.015 148.194 134.019 147.994 133.978 147.801L132.86 142.484C132.813 142.268 132.713 142.066 132.569 141.897C132.425 141.729 132.241 141.599 132.034 141.52C131.884 141.462 131.725 141.431 131.564 141.432H61.7427C61.5817 141.431 61.4221 141.462 61.2722 141.52C61.0652 141.599 60.8812 141.729 60.737 141.897C60.5928 142.066 60.493 142.268 60.4466 142.484L59.3282 147.801C59.2884 147.994 59.292 148.193 59.3388 148.385C59.3857 148.576 59.4745 148.755 59.5989 148.907Z" fill="#2F2E41"/>
<path d="M129.049 143.722H130.835C130.955 143.722 131.052 143.625 131.052 143.505V142.606C131.052 142.486 130.955 142.389 130.835 142.389H129.049C128.93 142.389 128.833 142.486 128.833 142.606V143.505C128.833 143.625 128.93 143.722 129.049 143.722Z" fill="#7B7A89"/>
<path d="M124.611 143.722H126.397C126.516 143.722 126.613 143.625 126.613 143.505V142.606C126.613 142.486 126.516 142.389 126.397 142.389H124.611C124.491 142.389 124.394 142.486 124.394 142.606V143.505C124.394 143.625 124.491 143.722 124.611 143.722Z" fill="#7B7A89"/>
<path d="M120.172 143.722H121.958C122.078 143.722 122.175 143.625 122.175 143.505V142.606C122.175 142.486 122.078 142.389 121.958 142.389H120.172C120.053 142.389 119.956 142.486 119.956 142.606V143.505C119.956 143.625 120.053 143.722 120.172 143.722Z" fill="#7B7A89"/>
<path d="M115.734 143.722H117.52C117.639 143.722 117.736 143.625 117.736 143.505V142.606C117.736 142.486 117.639 142.389 117.52 142.389H115.734C115.614 142.389 115.517 142.486 115.517 142.606V143.505C115.517 143.625 115.614 143.722 115.734 143.722Z" fill="#7B7A89"/>
<path d="M111.295 143.722H113.081C113.201 143.722 113.298 143.625 113.298 143.505V142.606C113.298 142.486 113.201 142.389 113.081 142.389H111.295C111.176 142.389 111.079 142.486 111.079 142.606V143.505C111.079 143.625 111.176 143.722 111.295 143.722Z" fill="#7B7A89"/>
<path d="M106.858 143.722H108.644C108.763 143.722 108.86 143.625 108.86 143.505V142.606C108.86 142.486 108.763 142.389 108.644 142.389H106.858C106.738 142.389 106.641 142.486 106.641 142.606V143.505C106.641 143.625 106.738 143.722 106.858 143.722Z" fill="#7B7A89"/>
<path d="M102.419 143.722H104.205C104.325 143.722 104.422 143.625 104.422 143.505V142.606C104.422 142.486 104.325 142.389 104.205 142.389H102.419C102.3 142.389 102.203 142.486 102.203 142.606V143.505C102.203 143.625 102.3 143.722 102.419 143.722Z" fill="#7B7A89"/>
<path d="M97.9809 143.722H99.7667C99.8864 143.722 99.9834 143.625 99.9834 143.505V142.606C99.9834 142.486 99.8864 142.389 99.7667 142.389H97.9809C97.8612 142.389 97.7642 142.486 97.7642 142.606V143.505C97.7642 143.625 97.8612 143.722 97.9809 143.722Z" fill="#7B7A89"/>
<path d="M93.5424 143.722H95.3282C95.4479 143.722 95.5449 143.625 95.5449 143.505V142.606C95.5449 142.486 95.4479 142.389 95.3282 142.389H93.5424C93.4227 142.389 93.3257 142.486 93.3257 142.606V143.505C93.3257 143.625 93.4227 143.722 93.5424 143.722Z" fill="#7B7A89"/>
<path d="M89.1039 143.722H90.8898C91.0094 143.722 91.1064 143.625 91.1064 143.505V142.606C91.1064 142.486 91.0094 142.389 90.8898 142.389H89.1039C88.9842 142.389 88.8872 142.486 88.8872 142.606V143.505C88.8872 143.625 88.9842 143.722 89.1039 143.722Z" fill="#7B7A89"/>
<path d="M84.6654 143.722H86.4513C86.571 143.722 86.668 143.625 86.668 143.505V142.606C86.668 142.486 86.571 142.389 86.4513 142.389H84.6654C84.5458 142.389 84.4488 142.486 84.4488 142.606V143.505C84.4488 143.625 84.5458 143.722 84.6654 143.722Z" fill="#7B7A89"/>
<path d="M80.227 143.722H82.0128C82.1325 143.722 82.2295 143.625 82.2295 143.505V142.606C82.2295 142.486 82.1325 142.389 82.0128 142.389H80.227C80.1073 142.389 80.0103 142.486 80.0103 142.606V143.505C80.0103 143.625 80.1073 143.722 80.227 143.722Z" fill="#7B7A89"/>
<path d="M75.7885 143.722H77.5743C77.694 143.722 77.791 143.625 77.791 143.505V142.606C77.791 142.486 77.694 142.389 77.5743 142.389H75.7885C75.6688 142.389 75.5718 142.486 75.5718 142.606V143.505C75.5718 143.625 75.6688 143.722 75.7885 143.722Z" fill="#7B7A89"/>
<path d="M71.35 143.722H73.1359C73.2555 143.722 73.3525 143.625 73.3525 143.505V142.606C73.3525 142.486 73.2555 142.389 73.1359 142.389H71.35C71.2303 142.389 71.1333 142.486 71.1333 142.606V143.505C71.1333 143.625 71.2303 143.722 71.35 143.722Z" fill="#7B7A89"/>
<path d="M66.9115 143.722H68.6974C68.8171 143.722 68.9141 143.625 68.9141 143.505V142.606C68.9141 142.486 68.8171 142.389 68.6974 142.389H66.9115C66.7919 142.389 66.6948 142.486 66.6948 142.606V143.505C66.6948 143.625 66.7919 143.722 66.9115 143.722Z" fill="#7B7A89"/>
<path d="M62.4731 143.722H64.2589C64.3786 143.722 64.4756 143.625 64.4756 143.505V142.606C64.4756 142.486 64.3786 142.389 64.2589 142.389H62.4731C62.3534 142.389 62.2564 142.486 62.2564 142.606V143.505C62.2564 143.625 62.3534 143.722 62.4731 143.722Z" fill="#7B7A89"/>
<path d="M129.102 145.942H130.888C131.007 145.942 131.104 145.845 131.104 145.726V144.827C131.104 144.707 131.007 144.61 130.888 144.61H129.102C128.982 144.61 128.885 144.707 128.885 144.827V145.726C128.885 145.845 128.982 145.942 129.102 145.942Z" fill="#7B7A89"/>
<path d="M124.663 145.942H126.449C126.569 145.942 126.666 145.845 126.666 145.726V144.827C126.666 144.707 126.569 144.61 126.449 144.61H124.663C124.544 144.61 124.447 144.707 124.447 144.827V145.726C124.447 145.845 124.544 145.942 124.663 145.942Z" fill="#7B7A89"/>
<path d="M120.225 145.942H122.011C122.131 145.942 122.228 145.845 122.228 145.726V144.827C122.228 144.707 122.131 144.61 122.011 144.61H120.225C120.105 144.61 120.008 144.707 120.008 144.827V145.726C120.008 145.845 120.105 145.942 120.225 145.942Z" fill="#7B7A89"/>
<path d="M115.787 145.942H117.572C117.692 145.942 117.789 145.845 117.789 145.726V144.827C117.789 144.707 117.692 144.61 117.572 144.61H115.787C115.667 144.61 115.57 144.707 115.57 144.827V145.726C115.57 145.845 115.667 145.942 115.787 145.942Z" fill="#7B7A89"/>
<path d="M111.348 145.942H113.134C113.254 145.942 113.351 145.845 113.351 145.726V144.827C113.351 144.707 113.254 144.61 113.134 144.61H111.348C111.228 144.61 111.131 144.707 111.131 144.827V145.726C111.131 145.845 111.228 145.942 111.348 145.942Z" fill="#7B7A89"/>
<path d="M106.91 145.942H108.695C108.815 145.942 108.912 145.845 108.912 145.726V144.827C108.912 144.707 108.815 144.61 108.695 144.61H106.91C106.79 144.61 106.693 144.707 106.693 144.827V145.726C106.693 145.845 106.79 145.942 106.91 145.942Z" fill="#7B7A89"/>
<path d="M102.471 145.942H104.257C104.377 145.942 104.474 145.845 104.474 145.726V144.827C104.474 144.707 104.377 144.61 104.257 144.61H102.471C102.351 144.61 102.254 144.707 102.254 144.827V145.726C102.254 145.845 102.351 145.942 102.471 145.942Z" fill="#7B7A89"/>
<path d="M98.0326 145.942H99.8185C99.9381 145.942 100.035 145.845 100.035 145.726V144.827C100.035 144.707 99.9381 144.61 99.8185 144.61H98.0326C97.913 144.61 97.8159 144.707 97.8159 144.827V145.726C97.8159 145.845 97.913 145.942 98.0326 145.942Z" fill="#7B7A89"/>
<path d="M93.5941 145.942H95.38C95.4997 145.942 95.5967 145.845 95.5967 145.726V144.827C95.5967 144.707 95.4997 144.61 95.38 144.61H93.5941C93.4745 144.61 93.3775 144.707 93.3775 144.827V145.726C93.3775 145.845 93.4745 145.942 93.5941 145.942Z" fill="#7B7A89"/>
<path d="M89.1557 145.942H90.9415C91.0612 145.942 91.1582 145.845 91.1582 145.726V144.827C91.1582 144.707 91.0612 144.61 90.9415 144.61H89.1557C89.036 144.61 88.939 144.707 88.939 144.827V145.726C88.939 145.845 89.036 145.942 89.1557 145.942Z" fill="#7B7A89"/>
<path d="M84.7172 145.942H86.503C86.6227 145.942 86.7197 145.845 86.7197 145.726V144.827C86.7197 144.707 86.6227 144.61 86.503 144.61H84.7172C84.5975 144.61 84.5005 144.707 84.5005 144.827V145.726C84.5005 145.845 84.5975 145.942 84.7172 145.942Z" fill="#7B7A89"/>
<path d="M80.2787 145.942H82.0646C82.1842 145.942 82.2812 145.845 82.2812 145.726V144.827C82.2812 144.707 82.1842 144.61 82.0646 144.61H80.2787C80.159 144.61 80.062 144.707 80.062 144.827V145.726C80.062 145.845 80.159 145.942 80.2787 145.942Z" fill="#7B7A89"/>
<path d="M75.8412 145.942H77.6271C77.7467 145.942 77.8438 145.845 77.8438 145.726V144.827C77.8438 144.707 77.7467 144.61 77.6271 144.61H75.8412C75.7215 144.61 75.6245 144.707 75.6245 144.827V145.726C75.6245 145.845 75.7215 145.942 75.8412 145.942Z" fill="#7B7A89"/>
<path d="M71.4027 145.942H73.1886C73.3083 145.942 73.4053 145.845 73.4053 145.726V144.827C73.4053 144.707 73.3083 144.61 73.1886 144.61H71.4027C71.2831 144.61 71.1861 144.707 71.1861 144.827V145.726C71.1861 145.845 71.2831 145.942 71.4027 145.942Z" fill="#7B7A89"/>
<path d="M66.9643 145.942H68.7501C68.8698 145.942 68.9668 145.845 68.9668 145.726V144.827C68.9668 144.707 68.8698 144.61 68.7501 144.61H66.9643C66.8446 144.61 66.7476 144.707 66.7476 144.827V145.726C66.7476 145.845 66.8446 145.942 66.9643 145.942Z" fill="#7B7A89"/>
<path d="M62.5258 145.942H64.3116C64.4313 145.942 64.5283 145.845 64.5283 145.726V144.827C64.5283 144.707 64.4313 144.61 64.3116 144.61H62.5258C62.4061 144.61 62.3091 144.707 62.3091 144.827V145.726C62.3091 145.845 62.4061 145.942 62.5258 145.942Z" fill="#7B7A89"/>
<path d="M92.2628 148.607H109.583C109.703 148.607 109.8 148.51 109.8 148.391V147.492C109.8 147.372 109.703 147.275 109.583 147.275H92.2628C92.1431 147.275 92.0461 147.372 92.0461 147.492V148.391C92.0461 148.51 92.1431 148.607 92.2628 148.607Z" fill="#7B7A89"/>
<path d="M43.1245 39.9525H156.448C156.566 39.9499 156.678 39.9013 156.76 39.817C156.843 39.7327 156.889 39.6195 156.889 39.5015C156.889 39.3836 156.843 39.2704 156.76 39.1861C156.678 39.1018 156.566 39.0531 156.448 39.0505H43.1245C43.0067 39.0531 42.8945 39.1018 42.8121 39.1861C42.7297 39.2704 42.6836 39.3836 42.6836 39.5015C42.6836 39.6195 42.7297 39.7327 42.8121 39.817C42.8945 39.9013 43.0067 39.9499 43.1245 39.9525Z" fill="#7B7A89"/>
<path d="M148.734 36.7479C150.192 36.7479 151.375 35.5382 151.375 34.046C151.375 32.5537 150.192 31.344 148.734 31.344C147.275 31.344 146.093 32.5537 146.093 34.046C146.093 35.5382 147.275 36.7479 148.734 36.7479Z" fill="#7B7A89"/>
<path d="M139.611 36.7479C141.069 36.7479 142.252 35.5382 142.252 34.046C142.252 32.5537 141.069 31.344 139.611 31.344C138.152 31.344 136.97 32.5537 136.97 34.046C136.97 35.5382 138.152 36.7479 139.611 36.7479Z" fill="#7B7A89"/>
<path d="M130.487 36.7479C131.945 36.7479 133.128 35.5382 133.128 34.046C133.128 32.5537 131.945 31.344 130.487 31.344C129.028 31.344 127.846 32.5537 127.846 34.046C127.846 35.5382 129.028 36.7479 130.487 36.7479Z" fill="#7B7A89"/>
<path d="M48.1348 32.5053C48.1345 32.5691 48.1467 32.6324 48.1709 32.6916C48.195 32.7507 48.2306 32.8045 48.2755 32.8498C48.3204 32.8952 48.3739 32.9313 48.4327 32.956C48.4916 32.9807 48.5547 32.9936 48.6186 32.9938H55.0987C55.2268 32.9909 55.3486 32.9378 55.4382 32.8461C55.5277 32.7544 55.5778 32.6313 55.5778 32.503C55.5778 32.3748 55.5277 32.2517 55.4382 32.1599C55.3486 32.0682 55.2268 32.0152 55.0987 32.0122H48.6186C48.4892 32.0138 48.3657 32.0665 48.2751 32.1589C48.1844 32.2513 48.134 32.3758 48.1348 32.5053Z" fill="#7B7A89"/>
<path d="M48.1348 34.3485C48.1345 34.4124 48.1467 34.4757 48.1709 34.5348C48.195 34.594 48.2306 34.6477 48.2755 34.6931C48.3204 34.7385 48.3739 34.7746 48.4327 34.7993C48.4916 34.824 48.5547 34.8368 48.6186 34.8371H55.0987C55.2269 34.8343 55.3489 34.7813 55.4385 34.6896C55.5282 34.5978 55.5784 34.4746 55.5784 34.3463C55.5784 34.218 55.5282 34.0947 55.4385 34.003C55.3489 33.9113 55.2269 33.8583 55.0987 33.8555H48.6186C48.4892 33.857 48.3657 33.9098 48.2751 34.0022C48.1844 34.0945 48.134 34.219 48.1348 34.3485Z" fill="#7B7A89"/>
<path d="M48.1348 36.1873C48.134 36.3168 48.1844 36.4413 48.2751 36.5337C48.3657 36.6261 48.4892 36.6788 48.6186 36.6804H55.0987C55.2268 36.6774 55.3486 36.6244 55.4382 36.5326C55.5277 36.4409 55.5778 36.3178 55.5778 36.1896C55.5778 36.0613 55.5277 35.9382 55.4382 35.8465C55.3486 35.7547 55.2268 35.7017 55.0987 35.6987H48.6186C48.5547 35.699 48.4916 35.7119 48.4327 35.7366C48.3739 35.7613 48.3204 35.7974 48.2755 35.8427C48.2306 35.8881 48.195 35.9419 48.1709 36.001C48.1467 36.0601 48.1345 36.1235 48.1348 36.1873Z" fill="#7B7A89"/>
<path d="M50.137 50.4336H47.8085C47.1026 50.4336 46.5303 51.0063 46.5303 51.7128C46.5303 52.4193 47.1026 52.992 47.8085 52.992H50.137C50.843 52.992 51.4152 52.4193 51.4152 51.7128C51.4152 51.0063 50.843 50.4336 50.137 50.4336Z" fill="#E6E6E6"/>
<path d="M76.7679 50.4336H74.4394C73.7334 50.4336 73.1611 51.0063 73.1611 51.7128C73.1611 52.4193 73.7334 52.992 74.4394 52.992H76.7679C77.4738 52.992 78.0461 52.4193 78.0461 51.7128C78.0461 51.0063 77.4738 50.4336 76.7679 50.4336Z" fill="#E6E6E6"/>
<path d="M84.3138 50.4336H81.9853C81.2793 50.4336 80.707 51.0063 80.707 51.7128C80.707 52.4193 81.2793 52.992 81.9853 52.992H84.3138C85.0197 52.992 85.592 52.4193 85.592 51.7128C85.592 51.0063 85.0197 50.4336 84.3138 50.4336Z" fill="#E6E6E6"/>
<path d="M69.5245 50.2205H55.0527C54.3467 50.2205 53.7744 50.7932 53.7744 51.4997C53.7744 52.2062 54.3467 52.7789 55.0527 52.7789H69.5245C70.2305 52.7789 70.8028 52.2062 70.8028 51.4997C70.8028 50.7932 70.2305 50.2205 69.5245 50.2205Z" fill="#E6E6E6"/>
<path d="M105.032 50.2205H90.5605C89.8545 50.2205 89.2822 50.7932 89.2822 51.4997C89.2822 52.2062 89.8545 52.7789 90.5605 52.7789H105.032C105.738 52.7789 106.311 52.2062 106.311 51.4997C106.311 50.7932 105.738 50.2205 105.032 50.2205Z" fill="#E6E6E6"/>
<path d="M57.2386 56.208H54.9101C54.2041 56.208 53.6318 56.7807 53.6318 57.4872C53.6318 58.1937 54.2041 58.7665 54.9101 58.7665H57.2386C57.9445 58.7665 58.5168 58.1937 58.5168 57.4872C58.5168 56.7807 57.9445 56.208 57.2386 56.208Z" fill="#E6E6E6"/>
<path d="M83.8694 56.208H81.541C80.835 56.208 80.2627 56.7807 80.2627 57.4872C80.2627 58.1937 80.835 58.7665 81.541 58.7665H83.8694C84.5754 58.7665 85.1477 58.1937 85.1477 57.4872C85.1477 56.7807 84.5754 56.208 83.8694 56.208Z" fill="#E6E6E6"/>
<path d="M91.4153 56.208H89.0869C88.3809 56.208 87.8086 56.7807 87.8086 57.4872C87.8086 58.1937 88.3809 58.7665 89.0869 58.7665H91.4153C92.1213 58.7665 92.6936 58.1937 92.6936 57.4872C92.6936 56.7807 92.1213 56.208 91.4153 56.208Z" fill="#E6E6E6"/>
<path d="M76.6261 55.9949H62.1542C61.4483 55.9949 60.876 56.5676 60.876 57.2741C60.876 57.9806 61.4483 58.5533 62.1542 58.5533H76.6261C77.332 58.5533 77.9043 57.9806 77.9043 57.2741C77.9043 56.5676 77.332 55.9949 76.6261 55.9949Z" fill="#E6E6E6"/>
<path d="M112.133 55.9949H97.6611C96.9551 55.9949 96.3828 56.5676 96.3828 57.2741C96.3828 57.9806 96.9551 58.5533 97.6611 58.5533H112.133C112.839 58.5533 113.411 57.9806 113.411 57.2741C113.411 56.5676 112.839 55.9949 112.133 55.9949Z" fill="#E6E6E6"/>
<path d="M64.3401 61.9824H62.0117C61.3057 61.9824 60.7334 62.5551 60.7334 63.2616C60.7334 63.9681 61.3057 64.5409 62.0117 64.5409H64.3401C65.0461 64.5409 65.6184 63.9681 65.6184 63.2616C65.6184 62.5551 65.0461 61.9824 64.3401 61.9824Z" fill="#E6E6E6"/>
<path d="M90.971 61.9824H88.6425C87.9366 61.9824 87.3643 62.5551 87.3643 63.2616C87.3643 63.9681 87.9366 64.5409 88.6425 64.5409H90.971C91.6769 64.5409 92.2492 63.9681 92.2492 63.2616C92.2492 62.5551 91.6769 61.9824 90.971 61.9824Z" fill="#E6E6E6"/>
<path d="M98.5159 61.9824H96.1874C95.4815 61.9824 94.9092 62.5551 94.9092 63.2616C94.9092 63.9681 95.4815 64.5409 96.1874 64.5409H98.5159C99.2219 64.5409 99.7942 63.9681 99.7942 63.2616C99.7942 62.5551 99.2219 61.9824 98.5159 61.9824Z" fill="#E6E6E6"/>
<path d="M83.7276 61.7693H69.2558C68.5498 61.7693 67.9775 62.342 67.9775 63.0485C67.9775 63.755 68.5498 64.3277 69.2558 64.3277H83.7276C84.4336 64.3277 85.0059 63.755 85.0059 63.0485C85.0059 62.342 84.4336 61.7693 83.7276 61.7693Z" fill="#E6E6E6"/>
<path d="M119.234 61.7693H104.763C104.057 61.7693 103.484 62.342 103.484 63.0485C103.484 63.755 104.057 64.3277 104.763 64.3277H119.234C119.94 64.3277 120.513 63.755 120.513 63.0485C120.513 62.342 119.94 61.7693 119.234 61.7693Z" fill="#E6E6E6"/>
<path d="M71.4417 67.7568H69.1132C68.4073 67.7568 67.835 68.3296 67.835 69.0361C67.835 69.7425 68.4073 70.3153 69.1132 70.3153H71.4417C72.1477 70.3153 72.7199 69.7425 72.7199 69.0361C72.7199 68.3296 72.1477 67.7568 71.4417 67.7568Z" fill="#E6E6E6"/>
<path d="M98.0726 67.7568H95.7441C95.0381 67.7568 94.4658 68.3296 94.4658 69.0361C94.4658 69.7425 95.0381 70.3153 95.7441 70.3153H98.0726C98.7785 70.3153 99.3508 69.7425 99.3508 69.0361C99.3508 68.3296 98.7785 67.7568 98.0726 67.7568Z" fill="#E6E6E6"/>
<path d="M105.617 67.7568H103.289C102.583 67.7568 102.011 68.3296 102.011 69.0361C102.011 69.7425 102.583 70.3153 103.289 70.3153H105.617C106.323 70.3153 106.896 69.7425 106.896 69.0361C106.896 68.3296 106.323 67.7568 105.617 67.7568Z" fill="#E6E6E6"/>
<path d="M90.8292 67.5435H76.3574C75.6514 67.5435 75.0791 68.1162 75.0791 68.8227C75.0791 69.5292 75.6514 70.1019 76.3574 70.1019H90.8292C91.5352 70.1019 92.1075 69.5292 92.1075 68.8227C92.1075 68.1162 91.5352 67.5435 90.8292 67.5435Z" fill="#E6E6E6"/>
<path d="M76.7679 90.718H74.4394C73.7334 90.718 73.1611 91.2908 73.1611 91.9972C73.1611 92.7037 73.7334 93.2765 74.4394 93.2765H76.7679C77.4738 93.2765 78.0461 92.7037 78.0461 91.9972C78.0461 91.2908 77.4738 90.718 76.7679 90.718Z" fill="#E6E6E6"/>
<path d="M84.3138 90.718H81.9853C81.2793 90.718 80.707 91.2908 80.707 91.9972C80.707 92.7037 81.2793 93.2765 81.9853 93.2765H84.3138C85.0197 93.2765 85.592 92.7037 85.592 91.9972C85.592 91.2908 85.0197 90.718 84.3138 90.718Z" fill="#E6E6E6"/>
<path d="M105.032 90.9314H90.5605C89.8545 90.9314 89.2822 91.5041 89.2822 92.2106C89.2822 92.9171 89.8545 93.4898 90.5605 93.4898H105.032C105.738 93.4898 106.311 92.9171 106.311 92.2106C106.311 91.5041 105.738 90.9314 105.032 90.9314Z" fill="#E6E6E6"/>
<path d="M50.137 90.718H47.8085C47.1026 90.718 46.5303 91.2908 46.5303 91.9972C46.5303 92.7037 47.1026 93.2765 47.8085 93.2765H50.137C50.843 93.2765 51.4152 92.7037 51.4152 91.9972C51.4152 91.2908 50.843 90.718 50.137 90.718Z" fill="#E6E6E6"/>
<path d="M69.5245 90.9314H55.0527C54.3467 90.9314 53.7744 91.5041 53.7744 92.2106C53.7744 92.9171 54.3467 93.4898 55.0527 93.4898H69.5245C70.2305 93.4898 70.8028 92.9171 70.8028 92.2106C70.8028 91.5041 70.2305 90.9314 69.5245 90.9314Z" fill="#E6E6E6"/>
<path d="M57.2386 84.9436H54.9101C54.2041 84.9436 53.6318 85.5163 53.6318 86.2228C53.6318 86.9293 54.2041 87.502 54.9101 87.502H57.2386C57.9445 87.502 58.5168 86.9293 58.5168 86.2228C58.5168 85.5163 57.9445 84.9436 57.2386 84.9436Z" fill="#E6E6E6"/>
<path d="M83.8694 84.9436H81.541C80.835 84.9436 80.2627 85.5163 80.2627 86.2228C80.2627 86.9293 80.835 87.502 81.541 87.502H83.8694C84.5754 87.502 85.1477 86.9293 85.1477 86.2228C85.1477 85.5163 84.5754 84.9436 83.8694 84.9436Z" fill="#E6E6E6"/>
<path d="M91.4153 84.9436H89.0869C88.3809 84.9436 87.8086 85.5163 87.8086 86.2228C87.8086 86.9293 88.3809 87.502 89.0869 87.502H91.4153C92.1213 87.502 92.6936 86.9293 92.6936 86.2228C92.6936 85.5163 92.1213 84.9436 91.4153 84.9436Z" fill="#E6E6E6"/>
<path d="M76.6261 85.157H62.1542C61.4483 85.157 60.876 85.7297 60.876 86.4362C60.876 87.1427 61.4483 87.7154 62.1542 87.7154H76.6261C77.332 87.7154 77.9043 87.1427 77.9043 86.4362C77.9043 85.7297 77.332 85.157 76.6261 85.157Z" fill="#E6E6E6"/>
<path d="M64.3401 79.1694H62.0117C61.3057 79.1694 60.7334 79.7422 60.7334 80.4487C60.7334 81.1552 61.3057 81.7279 62.0117 81.7279H64.3401C65.0461 81.7279 65.6184 81.1552 65.6184 80.4487C65.6184 79.7422 65.0461 79.1694 64.3401 79.1694Z" fill="#E6E6E6"/>
<path d="M90.971 79.1694H88.6425C87.9366 79.1694 87.3643 79.7422 87.3643 80.4487C87.3643 81.1552 87.9366 81.7279 88.6425 81.7279H90.971C91.6769 81.7279 92.2492 81.1552 92.2492 80.4487C92.2492 79.7422 91.6769 79.1694 90.971 79.1694Z" fill="#E6E6E6"/>
<path d="M98.5159 79.1694H96.1874C95.4815 79.1694 94.9092 79.7422 94.9092 80.4487C94.9092 81.1552 95.4815 81.7279 96.1874 81.7279H98.5159C99.2219 81.7279 99.7942 81.1552 99.7942 80.4487C99.7942 79.7422 99.2219 79.1694 98.5159 79.1694Z" fill="#E6E6E6"/>
<path d="M83.7276 79.3826H69.2558C68.5498 79.3826 67.9775 79.9553 67.9775 80.6618C67.9775 81.3683 68.5498 81.941 69.2558 81.941H83.7276C84.4336 81.941 85.0059 81.3683 85.0059 80.6618C85.0059 79.9553 84.4336 79.3826 83.7276 79.3826Z" fill="#E6E6E6"/>
<path d="M71.4417 73.395H69.1132C68.4073 73.395 67.835 73.9678 67.835 74.6742C67.835 75.3807 68.4073 75.9535 69.1132 75.9535H71.4417C72.1477 75.9535 72.7199 75.3807 72.7199 74.6742C72.7199 73.9678 72.1477 73.395 71.4417 73.395Z" fill="#E6E6E6"/>
<path d="M98.0726 73.395H95.7441C95.0381 73.395 94.4658 73.9678 94.4658 74.6742C94.4658 75.3807 95.0381 75.9535 95.7441 75.9535H98.0726C98.7785 75.9535 99.3508 75.3807 99.3508 74.6742C99.3508 73.9678 98.7785 73.395 98.0726 73.395Z" fill="#E6E6E6"/>
<path d="M105.617 73.395H103.289C102.583 73.395 102.011 73.9678 102.011 74.6742C102.011 75.3807 102.583 75.9535 103.289 75.9535H105.617C106.323 75.9535 106.896 75.3807 106.896 74.6742C106.896 73.9678 106.323 73.395 105.617 73.395Z" fill="#E6E6E6"/>
<path d="M90.8292 73.6084H76.3574C75.6514 73.6084 75.0791 74.1811 75.0791 74.8876C75.0791 75.5941 75.6514 76.1668 76.3574 76.1668H90.8292C91.5352 76.1668 92.1075 75.5941 92.1075 74.8876C92.1075 74.1811 91.5352 73.6084 90.8292 73.6084Z" fill="#E6E6E6"/>
<path d="M41.7656 174.137C42.0364 174.274 42.3116 174.412 42.5823 174.545C49.595 178.054 55.2052 180.049 62.8792 182.234C63.5273 174.994 64.1531 162.268 64.7611 154.379C64.9209 152.332 65.0807 150.613 65.236 149.4C65.2752 148.755 65.4068 148.12 65.6266 147.512L65.6 149.4L65.5334 154.379L65.1473 182.856C74.6932 185.383 84.4992 186.798 94.3699 187.071C94.8848 187.084 95.3907 187.093 95.879 187.102C96.0521 187.107 96.2207 187.111 96.3894 187.111C96.9442 187.115 97.4946 187.12 98.0494 187.12C108.451 187.128 118.815 185.87 128.914 183.375C128.697 176.211 128.479 163.627 128.271 154.379C128.226 152.572 128.186 150.888 128.142 149.4C128.058 146.22 127.969 143.928 127.884 143.159C127.959 143.296 128.017 143.44 128.058 143.59C128.469 145.506 128.749 147.447 128.896 149.4C129.052 150.888 129.207 152.572 129.362 154.379C130.188 163.987 131.049 177.05 131.937 182.589C137.22 181.146 142.405 179.361 147.458 177.246C150.121 176.135 152.737 174.938 155.305 173.652C154.817 170.454 154.306 166.87 153.783 163.152C153.374 160.269 152.953 157.306 152.522 154.379C151.856 149.858 141.963 118.259 141.337 117.059C140.8 116.033 140.29 115.065 139.806 114.172C138.634 112.005 137.64 110.277 136.903 109.184C133.823 104.508 129.237 101.027 123.908 99.3187L123.775 99.2832L123.681 99.3232L114.605 96.5337L113.278 96.1251L112.386 95.8497L109.243 93.4556L107.534 92.1541L105.932 90.9326L102.799 88.5474L83.3981 89.7422L79.621 98.8435L71.1614 101.939L71.0149 101.873L70.8862 101.819L70.7531 101.855C65.4241 103.565 60.8389 107.046 57.7573 111.72C57.3401 112.347 56.8341 113.173 56.2616 114.172C55.7734 115.021 55.2407 115.989 54.6637 117.059C53.8426 118.583 52.9461 120.302 51.9963 122.163C51.7877 122.572 51.5746 122.989 51.3616 123.411C50.9665 124.193 50.5656 124.991 50.1587 125.805C49.2134 127.693 48.2369 129.665 47.2604 131.668C46.4127 133.405 45.5561 136.976 44.7128 141.52C44.016 145.296 43.3236 149.747 42.6534 154.379C41.7745 160.385 42.711 167.576 41.9166 173.102C41.8677 173.452 41.8144 173.795 41.7656 174.137Z" fill="#7B7A89"/>
<path opacity="0.2" d="M134.746 141.501L130.975 126.935L127.645 139.504L134.746 141.501Z" fill="black"/>
<path d="M34.3896 132.01C35.7389 150.613 34.3408 158.803 41.7885 174.141C48.5648 177.46 55.6232 180.169 62.8799 182.234C63.6345 182.447 64.3905 182.654 65.148 182.856C74.6939 185.383 84.4999 186.798 94.3706 187.071C94.8854 187.084 95.3914 187.093 95.8797 187.102C96.0528 187.107 96.2214 187.111 96.3901 187.111C96.9449 187.115 97.4952 187.12 98.0501 187.12C108.452 187.128 118.816 185.87 128.915 183.375C129.927 183.127 130.934 182.865 131.937 182.589C137.221 181.146 142.406 179.361 147.459 177.246C150.122 176.135 152.737 174.937 155.306 173.652C155.887 173.359 156.469 173.066 157.041 172.764C159.984 167.585 161.657 161.286 161.693 153.717C159.655 140.676 38.8902 120.764 34.3896 132.01Z" fill="#2F2E41"/>
<path opacity="0.2" d="M34.393 135.196C34.3241 134.045 34.2471 132.855 34.1572 131.616C38.6578 120.369 159.423 140.282 161.46 153.323C161.455 154.519 161.404 155.679 161.318 156.812C156.384 143.94 41.6555 125.015 34.393 135.196Z" fill="black"/>
<path d="M7.02559 141.332C7.22113 141.902 7.59207 142.395 8.08513 142.74C8.5782 143.086 9.16803 143.266 9.76992 143.256L21.5281 142.953C22.1344 142.941 22.7206 142.733 23.1991 142.36C23.6776 141.987 24.0226 141.47 24.1827 140.884L25.8466 123.078C26.4369 123.346 27.0796 123.478 27.7276 123.465C28.864 123.436 29.9423 122.956 30.7254 122.131C31.5085 121.307 31.9324 120.205 31.9039 119.067C31.8753 117.93 31.3967 116.851 30.5733 116.066C29.7498 115.282 28.6488 114.857 27.5123 114.885C27.2534 114.884 26.995 114.911 26.7418 114.965C26.4663 114.667 26.1315 114.43 25.7589 114.269C25.3863 114.108 24.9842 114.027 24.5784 114.031L6.49161 114.499C6.34157 114.504 6.1923 114.523 6.04546 114.554C5.64882 114.628 5.27262 114.786 4.94218 115.018C4.61174 115.25 4.33473 115.549 4.12979 115.897C3.92486 116.245 3.79676 116.633 3.75411 117.034C3.71146 117.436 3.75525 117.842 3.88254 118.225L7.02559 141.332ZM26.1878 121.869L27.3718 117.626C27.5065 117.136 27.5096 116.619 27.3809 116.127C27.4383 116.127 27.489 116.1 27.5465 116.1C28.3583 116.083 29.1437 116.389 29.7304 116.951C30.3171 117.513 30.6572 118.284 30.6762 119.097C30.6952 119.909 30.3915 120.696 29.8318 121.285C29.272 121.873 28.5018 122.216 27.6901 122.237C27.1652 122.253 26.6459 122.126 26.1878 121.869Z" fill="#2F2E41"/>
<path d="M6.0459 114.554C6.43123 116.759 10.7635 118.309 15.9728 118.04C20.7631 117.819 24.6799 116.135 25.3975 114.14C25.1319 114.062 24.8558 114.025 24.5789 114.031L6.49204 114.499C6.34201 114.504 6.19273 114.523 6.0459 114.554Z" fill="#7B7A89"/>
<path d="M16.9275 131.547C16.9513 131.541 16.9739 131.531 16.9944 131.518L19.5479 129.845C19.5788 129.825 19.6042 129.798 19.6217 129.765C19.6393 129.733 19.6485 129.696 19.6485 129.66C19.6485 129.623 19.6393 129.586 19.6218 129.554C19.6043 129.522 19.5789 129.494 19.5481 129.474L16.894 127.734C16.8696 127.718 16.8423 127.707 16.8137 127.701C16.785 127.696 16.7555 127.696 16.7269 127.702C16.6983 127.708 16.6711 127.719 16.647 127.736C16.6228 127.752 16.6021 127.773 16.5861 127.798C16.5701 127.822 16.5591 127.849 16.5536 127.878C16.5482 127.907 16.5485 127.936 16.5546 127.965C16.5606 127.994 16.5722 128.021 16.5887 128.045C16.6052 128.069 16.6263 128.089 16.6508 128.105L19.0213 129.659L16.7515 131.146C16.7076 131.175 16.6752 131.218 16.6603 131.269C16.6453 131.319 16.6487 131.373 16.6698 131.421C16.6909 131.47 16.7284 131.509 16.7755 131.532C16.8227 131.555 16.8766 131.56 16.9275 131.547Z" fill="#F6774B"/>
<path d="M12.8938 131.734C12.9367 131.723 12.9753 131.699 13.0048 131.666C13.0342 131.633 13.0532 131.592 13.0592 131.549C13.0652 131.505 13.058 131.46 13.0385 131.42C13.019 131.381 12.9881 131.348 12.9498 131.326L10.596 129.975L12.871 128.284C12.8944 128.267 12.9141 128.245 12.929 128.22C12.944 128.195 12.9539 128.167 12.9581 128.138C12.9624 128.109 12.9609 128.08 12.9538 128.052C12.9467 128.024 12.9341 127.997 12.9167 127.974C12.8994 127.95 12.8776 127.93 12.8526 127.915C12.8276 127.901 12.7999 127.891 12.7711 127.886C12.7423 127.882 12.7129 127.884 12.6847 127.891C12.6564 127.898 12.6298 127.91 12.6065 127.928L10.0594 129.821C10.0298 129.843 10.0062 129.872 9.99056 129.906C9.97497 129.939 9.96794 129.976 9.97011 130.013C9.97228 130.049 9.98357 130.085 10.003 130.116C10.0224 130.148 10.0493 130.174 10.0812 130.192L12.7289 131.711C12.7788 131.74 12.838 131.748 12.8938 131.734Z" fill="#F6774B"/>
<path d="M16.6731 133.013C16.6945 133.008 16.7151 132.999 16.7339 132.988C16.7588 132.972 16.7805 132.952 16.7977 132.929C16.815 132.905 16.8274 132.879 16.8343 132.85C16.8412 132.822 16.8424 132.793 16.838 132.764C16.8335 132.735 16.8234 132.707 16.8082 132.682L13.1885 126.727C13.1577 126.677 13.1084 126.641 13.0513 126.627C12.9942 126.613 12.934 126.623 12.8839 126.653C12.8337 126.684 12.7977 126.733 12.7837 126.79C12.7697 126.847 12.7789 126.907 12.8092 126.958L16.429 132.914C16.4537 132.954 16.4907 132.986 16.5347 133.004C16.5786 133.021 16.6271 133.025 16.6731 133.013Z" fill="#F6774B"/>
<path d="M297.822 108.018H258.32V142.664H297.822V108.018Z" fill="#7B7A89"/>
<path d="M303.678 59.6248C302.946 63.9682 303.589 68.4322 305.517 72.3917C306.231 73.848 307.115 75.6024 306.246 76.9715C306.002 77.3137 305.685 77.597 305.318 77.8008C304.95 78.0045 304.542 78.1235 304.123 78.1491C303.284 78.1936 302.444 78.0848 301.645 77.828" fill="#CCCCCC"/>
<path d="M268.973 46.2773C269.709 46.2773 270.305 45.7801 270.305 45.1668C270.305 44.5536 269.709 44.0564 268.973 44.0564C268.238 44.0564 267.642 44.5536 267.642 45.1668C267.642 45.7801 268.238 46.2773 268.973 46.2773Z" fill="#7B7A89"/>
<path d="M273.855 46.7214C274.59 46.7214 275.186 46.2242 275.186 45.6109C275.186 44.9977 274.59 44.5005 273.855 44.5005C273.12 44.5005 272.523 44.9977 272.523 45.6109C272.523 46.2242 273.12 46.7214 273.855 46.7214Z" fill="#7B7A89"/>
<path d="M278.738 48.9423C279.473 48.9423 280.069 48.4452 280.069 47.8319C280.069 47.2186 279.473 46.7214 278.738 46.7214C278.002 46.7214 277.406 47.2186 277.406 47.8319C277.406 48.4452 278.002 48.9423 278.738 48.9423Z" fill="#7B7A89"/>
<path d="M284.507 47.6098C285.243 47.6098 285.839 47.1127 285.839 46.4994C285.839 45.8861 285.243 45.3889 284.507 45.3889C283.772 45.3889 283.176 45.8861 283.176 46.4994C283.176 47.1127 283.772 47.6098 284.507 47.6098Z" fill="#7B7A89"/>
<path d="M163.304 68.6565C169.771 66.8598 176.974 68.7853 181.972 73.1959C184.668 75.5921 186.647 78.6902 187.688 82.1453C188.964 86.2579 189.175 90.5961 189.308 94.871C189.456 99.5978 189.584 104.325 189.722 109.052C189.853 113.56 189.869 118.088 190.169 122.588C190.421 126.363 191.025 130.283 193.044 133.558C194.916 136.594 197.874 138.644 201.216 139.774C204.604 140.919 208.256 141.186 211.81 141.163C215.946 141.149 220.074 140.822 224.161 140.184C231.922 138.94 239.589 135.766 244.329 129.218C246.512 126.244 247.738 122.677 247.846 118.989C247.945 114.692 246.574 110.529 245.071 106.56C243.609 102.697 242.027 98.8918 241.101 94.8533C240.241 91.0739 239.832 87.2059 239.881 83.3301C239.96 75.5761 241.817 67.9438 245.309 61.0213C247.076 57.4658 249.318 54.1672 251.972 51.216C254.71 48.2346 258.1 45.7735 262.132 44.9666C264.099 44.5588 266.137 44.6407 268.065 45.2054C268.888 45.4519 269.239 44.1662 268.419 43.9205C264.425 42.7237 260.086 43.6337 256.545 45.7108C253.064 47.7531 250.312 50.817 247.977 54.0655C243.491 60.4347 240.504 67.738 239.241 75.4274C237.979 83.1168 238.472 90.9926 240.686 98.4638C243.055 106.232 248.209 114.318 245.995 122.725C244.057 130.084 237.344 135.085 230.409 137.344C226.201 138.714 221.79 139.294 217.39 139.594C213.672 139.847 209.903 140.009 206.195 139.53C202.79 139.091 199.287 138.049 196.647 135.762C193.752 133.254 192.43 129.651 191.854 125.953C191.202 121.769 191.298 117.454 191.175 113.233L190.756 98.8219C190.519 90.683 190.723 81.6627 185.432 74.9188C183.316 72.2909 180.63 70.1806 177.577 68.7482C174.524 67.3158 171.184 66.5991 167.813 66.6527C166.169 66.6905 164.535 66.932 162.95 67.3715C162.786 67.4232 162.647 67.5369 162.565 67.6887C162.482 67.8405 162.461 68.0184 162.507 68.1851C162.553 68.3517 162.662 68.494 162.811 68.5819C162.959 68.6699 163.136 68.6966 163.304 68.6565Z" fill="#7B7A89"/>
<path d="M68.781 60.2264C69.7236 66.938 73.29 73.0007 78.6967 77.0823C84.1033 81.1638 90.908 82.9305 97.6154 81.994C104.323 81.0575 110.385 77.4945 114.469 72.0878C118.552 66.6812 120.325 59.8732 119.396 53.1596L119.345 52.7968C118.264 46.1739 114.625 40.2415 109.213 36.2794C103.801 32.3174 97.0493 30.6432 90.4148 31.618C83.7803 32.5929 77.7946 36.1386 73.7489 41.4904C69.7032 46.8421 67.9217 53.5709 68.7888 60.2253L68.781 60.2264Z" fill="#FFB6B6"/>
<path d="M91.3065 81.3711C89.9854 78.7079 88.6279 75.8485 88.9867 72.897C89.3456 69.9455 92.2273 67.1158 95.0691 67.9831C96.7685 68.5017 98.0571 70.175 99.832 70.2549C102.274 70.3649 103.665 67.5637 104.417 65.236L107.48 55.7562C113.389 60.4018 105.906 55.5314 113.225 53.8308C116.097 53.1636 118.996 51.8718 120.674 49.446C122.351 47.0201 122.329 43.2659 120.01 41.4435C118.874 40.5499 117.364 40.214 116.277 39.2601C115.603 38.6683 115.137 37.8751 114.948 36.9978C114.76 36.1205 114.858 35.2057 115.23 34.3889C115.601 33.572 116.225 32.8965 117.01 32.4622C117.794 32.0279 118.698 31.858 119.587 31.9776L111.79 31.0289L114.098 26.8183C112.429 28.1438 110.101 28.3291 108.003 27.9583C105.905 27.5875 103.927 26.7302 101.874 26.1609C92.0177 23.4278 80.5893 28.2756 75.6975 37.2646C73.7776 36.6301 71.7103 36.5944 69.7696 37.1623C67.829 37.7301 66.1065 38.8747 64.8305 40.4443C62.7531 43.1012 62.1975 46.6395 62.128 50.0124C61.9985 56.6629 63.4694 63.2471 66.4166 69.2092C67.3352 71.0621 68.4209 72.8798 69.9822 74.2351C71.5435 75.5905 89.1879 83.0986 91.2242 82.7446" fill="#2F2E41"/>
<path d="M275.63 63.8223C275.634 64.9752 275.486 66.1236 275.191 67.238V67.2424C275.186 67.2646 275.178 67.2869 275.173 67.3091C274.277 70.6093 272.137 72.928 269.638 72.928C267.153 72.928 265.022 70.6271 264.113 67.3535C264.05 67.1269 263.997 66.9004 263.948 66.665C263.886 66.4029 263.837 66.132 263.797 65.8522C263.762 65.6301 263.735 65.4035 263.713 65.1726C263.682 64.8528 263.66 64.5329 263.655 64.1998V64.1954C263.646 64.071 263.646 63.9466 263.646 63.8223V63.7112L263.651 63.7068C263.651 63.1438 263.689 62.5815 263.762 62.0233C263.793 61.7879 263.828 61.5614 263.873 61.3348C263.926 61.0594 263.984 60.7885 264.055 60.522C264.113 60.2866 264.179 60.06 264.25 59.8335C264.348 59.5315 264.454 59.2383 264.574 58.9585C264.65 58.7764 264.729 58.5987 264.809 58.4255C265.901 56.1779 267.659 54.7166 269.638 54.7166C272.377 54.7166 274.685 57.5104 275.399 61.3215C275.408 61.3793 275.422 61.437 275.426 61.4947V61.4992C275.563 62.266 275.631 63.0434 275.63 63.8223Z" fill="#E6E6E6"/>
<path d="M264.867 58.621C264.865 58.7024 264.834 58.7805 264.781 58.842C264.727 58.9035 264.654 58.9447 264.574 58.9586C264.65 58.7764 264.73 58.5988 264.809 58.4255C264.846 58.4841 264.866 58.5517 264.867 58.621Z" fill="#F6774B"/>
<path d="M270.114 58.2163H266.208C266.018 58.2163 265.863 58.3709 265.863 58.5615C265.863 58.7522 266.018 58.9068 266.208 58.9068H270.114C270.305 58.9068 270.459 58.7522 270.459 58.5615C270.459 58.3709 270.305 58.2163 270.114 58.2163Z" fill="#F6774B"/>
<path d="M264.747 60.1755C264.747 60.2674 264.71 60.3554 264.646 60.4204C264.581 60.4853 264.493 60.5219 264.401 60.522H264.055C264.112 60.2866 264.179 60.06 264.25 59.8335H264.401C264.492 59.8334 264.579 59.8692 264.644 59.9333C264.709 59.9973 264.746 60.0844 264.747 60.1755Z" fill="#F6774B"/>
<path d="M266.439 59.8325H265.811C265.62 59.8325 265.466 59.9871 265.466 60.1778C265.466 60.3684 265.62 60.523 265.811 60.523H266.439C266.63 60.523 266.784 60.3684 266.784 60.1778C266.784 59.9871 266.63 59.8325 266.439 59.8325Z" fill="#F6774B"/>
<path d="M272.031 59.7749H268.125C267.935 59.7749 267.78 59.9295 267.78 60.1201C267.78 60.3108 267.935 60.4654 268.125 60.4654H272.031C272.222 60.4654 272.376 60.3108 272.376 60.1201C272.376 59.9295 272.222 59.7749 272.031 59.7749Z" fill="#F6774B"/>
<path d="M266.319 61.3909H265.691C265.5 61.3909 265.346 61.5454 265.346 61.7361C265.346 61.9268 265.5 62.0814 265.691 62.0814H266.319C266.51 62.0814 266.664 61.9268 266.664 61.7361C266.664 61.5454 266.51 61.3909 266.319 61.3909Z" fill="#F6774B"/>
<path d="M268.356 61.3909H267.728C267.537 61.3909 267.383 61.5454 267.383 61.7361C267.383 61.9268 267.537 62.0814 267.728 62.0814H268.356C268.547 62.0814 268.701 61.9268 268.701 61.7361C268.701 61.5454 268.547 61.3909 268.356 61.3909Z" fill="#F6774B"/>
<path d="M264.712 61.677C264.711 61.7688 264.675 61.8569 264.61 61.9218C264.545 61.9868 264.457 62.0233 264.365 62.0235H263.762C263.793 61.788 263.828 61.5615 263.873 61.335H264.365C264.411 61.3345 264.455 61.343 264.497 61.36C264.539 61.377 264.577 61.4021 264.61 61.4339C264.642 61.4657 264.667 61.5035 264.685 61.5452C264.702 61.587 264.711 61.6317 264.712 61.677Z" fill="#F6774B"/>
<path d="M273.948 61.3333H270.042C269.852 61.3333 269.697 61.4878 269.697 61.6785C269.697 61.8692 269.852 62.0238 270.042 62.0238H273.948C274.139 62.0238 274.293 61.8692 274.293 61.6785C274.293 61.4878 274.139 61.3333 273.948 61.3333Z" fill="#F6774B"/>
<path d="M264.867 63.9512C264.867 63.9964 264.858 64.0412 264.84 64.0829C264.823 64.1247 264.797 64.1625 264.765 64.1943C264.733 64.2261 264.695 64.2512 264.653 64.2682C264.611 64.2851 264.566 64.2936 264.521 64.2932H263.895C263.806 64.2936 263.721 64.2603 263.655 64.1999V64.1955C263.646 64.0711 263.646 63.9468 263.646 63.8224V63.7113L263.651 63.7069C263.683 63.6745 263.721 63.6488 263.763 63.6312C263.805 63.6137 263.85 63.6047 263.895 63.6047H264.521C264.613 63.6049 264.701 63.6414 264.766 63.7063C264.83 63.7713 264.867 63.8593 264.867 63.9512Z" fill="#CCCCCC"/>
<path d="M270.114 63.5466H266.208C266.018 63.5466 265.863 63.7012 265.863 63.8919C265.863 64.0825 266.018 64.2371 266.208 64.2371H270.114C270.305 64.2371 270.459 64.0825 270.459 63.8919C270.459 63.7012 270.305 63.5466 270.114 63.5466Z" fill="#CCCCCC"/>
<path d="M264.747 65.5057C264.747 65.5976 264.71 65.6856 264.645 65.7506C264.581 65.8155 264.493 65.852 264.401 65.8522H263.797C263.762 65.6301 263.735 65.4035 263.713 65.1726C263.733 65.1653 263.754 65.1622 263.775 65.1637H264.401C264.492 65.1635 264.579 65.1994 264.644 65.2634C264.709 65.3275 264.746 65.4145 264.747 65.5057Z" fill="#CCCCCC"/>
<path d="M266.439 65.1626H265.811C265.62 65.1626 265.466 65.3172 265.466 65.5078C265.466 65.6985 265.62 65.8531 265.811 65.8531H266.439C266.63 65.8531 266.784 65.6985 266.784 65.5078C266.784 65.3172 266.63 65.1626 266.439 65.1626Z" fill="#CCCCCC"/>
<path d="M272.031 65.105H268.125C267.935 65.105 267.78 65.2595 267.78 65.4502C267.78 65.6409 267.935 65.7955 268.125 65.7955H272.031C272.222 65.7955 272.376 65.6409 272.376 65.4502C272.376 65.2595 272.222 65.105 272.031 65.105Z" fill="#CCCCCC"/>
<path d="M266.319 66.7209H265.691C265.5 66.7209 265.346 66.8755 265.346 67.0662C265.346 67.2569 265.5 67.4114 265.691 67.4114H266.319C266.51 67.4114 266.664 67.2569 266.664 67.0662C266.664 66.8755 266.51 66.7209 266.319 66.7209Z" fill="#CCCCCC"/>
<path d="M268.356 66.7209H267.728C267.537 66.7209 267.383 66.8755 267.383 67.0662C267.383 67.2569 267.537 67.4114 267.728 67.4114H268.356C268.547 67.4114 268.701 67.2569 268.701 67.0662C268.701 66.8755 268.547 66.7209 268.356 66.7209Z" fill="#CCCCCC"/>
<path d="M264.712 67.0071C264.712 67.0989 264.675 67.187 264.61 67.2519C264.545 67.3169 264.457 67.3534 264.365 67.3535H264.112C264.05 67.127 263.997 66.9005 263.948 66.6651H264.365C264.411 66.6646 264.456 66.6731 264.497 66.6901C264.539 66.7071 264.577 66.7322 264.61 66.764C264.642 66.7958 264.667 66.8336 264.685 66.8753C264.702 66.917 264.711 66.9618 264.712 67.0071Z" fill="#CCCCCC"/>
<path d="M273.948 66.6633H270.042C269.852 66.6633 269.697 66.8179 269.697 67.0086C269.697 67.1993 269.852 67.3538 270.042 67.3538H273.948C274.139 67.3538 274.293 67.1993 274.293 67.0086C274.293 66.8179 274.139 66.6633 273.948 66.6633Z" fill="#CCCCCC"/>
</g>
<defs>
<clipPath id="clip0_15_5">
<rect width="328" height="187" fill="white"/>
</clipPath>
</defs>
</svg>
